<?xml version="1.0" standalone="no"?><!-- Generator: Gravit.io --><svg xmlns="http://www.w3.org/2000/svg" xmlns:xlink="http://www.w3.org/1999/xlink" style="isolation:isolate" viewBox="961.5 155 339 99.084" width="339" height="99.084"><g id="Logo with Text"><linearGradient id="_lgradient_4" x1="27.21367757189144%" y1="6.742092112035934%" x2="93.61397993692684%" y2="122.53234760285532%"><stop offset="0%" stop-opacity="1" style="stop-color:rgb(44,242,73)"/><stop offset="97.3913043478261%" stop-opacity="1" style="stop-color:rgb(16,112,230)"/></linearGradient><path d=" M 1036.0382 202.0066 L 1033.3492 198.5038 C 1032.2566 197.0806 1031.569 194.4822 1031.8147 192.7049 L 1032.4116 188.3858 C 1032.6573 186.6085 1031.5026 184.6286 1029.8347 183.9672 L 1025.7314 182.34 C 1024.0635 181.6786 1022.1725 179.7875 1021.5111 178.1197 L 1019.8839 174.0163 C 1019.2225 172.3485 1017.2426 171.1938 1015.4652 171.4395 L 1011.1462 172.0364 C 1009.3689 172.282 1006.7717 171.5928 1005.3501 170.4981 L 1001.754 167.7291 C 1000.3324 166.6345 998.0228 166.6328 996.5996 167.7254 L 993.0968 170.4144 C 991.6736 171.507 989.0751 172.1946 987.2978 171.9489 L 982.9788 171.352 C 981.2015 171.1063 979.2215 172.261 978.5601 173.9288 L 976.9329 178.0322 C 976.2716 179.7001 974.3805 181.5911 972.7126 182.2525 L 968.6093 183.8797 C 966.9414 184.5411 965.7868 186.521 966.0324 188.2983 L 966.6293 192.6174 C 966.875 194.3947 966.1857 196.9918 965.0911 198.4134 L 962.3221 202.0095 C 961.2274 203.4311 961.2258 205.7408 962.3183 207.164 L 965.0074 210.6668 C 966.0999 212.09 966.7875 214.6884 966.5419 216.4658 L 965.9449 220.7848 C 965.6993 222.5621 966.8539 224.542 968.5218 225.2034 L 972.6252 226.8306 C 974.293 227.492 976.1841 229.3831 976.8455 231.0509 L 978.4727 235.1543 C 979.1341 236.8222 981.114 237.9768 982.8913 237.7312 L 987.2104 237.1342 C 988.9877 236.8886 991.5861 237.5762 993.0093 238.6687 L 996.5121 241.3578 C 997.9353 242.4503 1000.2462 242.4503 1001.6695 241.3578 L 1005.1723 238.6687 C 1006.5955 237.5762 1009.1939 236.8886 1010.9712 237.1342 L 1015.2903 237.7312 C 1017.0676 237.9768 1019.0475 236.8222 1019.7089 235.1543 L 1021.3361 231.0509 C 1021.9975 229.3831 1023.8845 227.482 1025.5474 226.8082 L 1029.6688 225.1384 C 1031.3317 224.4646 1032.4823 222.4746 1032.2366 220.6973 L 1031.6397 216.3783 C 1031.3941 214.601 1032.1018 212.0183 1033.2191 210.6144 L 1035.9933 207.1289 C 1037.1107 205.725 1037.1308 203.4299 1036.0382 202.0066 Z  M 1013.9323 188.8351 C 1010.0739 185.2077 1004.8807 182.9842 999.1723 182.9842 C 990.7834 182.9842 983.5072 187.7861 979.9449 194.7889 L 991.8697 194.7889 C 994.1167 194.7889 995.9411 196.6133 995.9411 198.8603 C 995.9411 201.1074 994.1167 202.9318 991.8697 202.9318 L 977.6737 202.9318 C 977.6344 203.4634 977.6144 204.0005 977.6144 204.5421 C 977.6144 205.0017 977.6288 205.4579 977.6572 205.9104 L 989.3975 205.9104 C 991.0184 205.9104 992.3343 207.1754 992.3343 208.7335 C 992.3343 210.2916 991.0184 211.5566 989.3975 211.5566 L 978.7832 211.5566 C 981.6963 220.0156 989.7294 226.1001 999.1723 226.1001 C 1004.203 226.1001 1008.8335 224.3732 1012.503 221.4804 L 1010.6419 221.4804 C 1008.5644 221.4804 1006.8777 219.7937 1006.8777 217.7162 C 1006.8777 215.6387 1008.5644 213.952 1010.6419 213.952 L 1018.5706 213.952 C 1018.999 213.0713 1019.3692 212.1571 1019.6761 211.2144 L 1013.5796 211.2144 C 1012.1159 211.2144 1010.9275 210.0261 1010.9275 208.5624 C 1010.9275 207.0987 1012.1159 205.9104 1013.5796 205.9104 L 1020.6875 205.9104 C 1020.7159 205.4579 1020.7303 205.0017 1020.7303 204.5421 C 1020.7303 201.0329 1019.89 197.7183 1018.3998 194.7889 L 1004.7216 194.7889 C 1003.0786 194.7889 1001.7448 193.455 1001.7448 191.812 C 1001.7448 190.169 1003.0786 188.8351 1004.7216 188.8351 L 1013.9323 188.8351 Z  M 1007.11 198.8603 L 1016.4059 198.8603 C 1017.8696 198.8603 1019.0579 200.0487 1019.0579 201.5124 C 1019.0579 202.9761 1017.8696 204.1644 1016.4059 204.1644 L 1007.11 204.1644 C 1005.6463 204.1644 1004.4579 202.9761 1004.4579 201.5124 C 1004.4579 200.0487 1005.6463 198.8603 1007.11 198.8603 Z " fill-rule="evenodd" fill="url(#_lgradient_4)"/><path d=" M 1073.5 221.4421 L 1073.5 221.4421 Q 1069.65 221.4421 1066.225 220.4171 L 1066.225 220.4171 L 1066.225 220.4171 Q 1062.8 219.3921 1060.65 217.6421 L 1060.65 217.6421 L 1060.65 217.6421 Q 1059.5 216.7921 1059.5 215.2421 L 1059.5 215.2421 L 1059.5 215.2421 Q 1059.5 214.1921 1060.125 213.4171 L 1060.125 213.4171 L 1060.125 213.4171 Q 1060.75 212.6421 1061.6 212.6421 L 1061.6 212.6421 L 1061.6 212.6421 Q 1062.5 212.6421 1063.65 213.3421 L 1063.65 213.3421 L 1063.65 213.3421 Q 1065.8 214.8921 1068.15 215.5921 L 1068.15 215.5921 L 1068.15 215.5921 Q 1070.5 216.2921 1073.35 216.2921 L 1073.35 216.2921 L 1073.35 216.2921 Q 1077 216.2921 1078.95 215.0171 L 1078.95 215.0171 L 1078.95 215.0171 Q 1080.9 213.7421 1080.9 211.2921 L 1080.9 211.2921 L 1080.9 211.2921 Q 1080.9 209.3921 1079.075 208.3671 L 1079.075 208.3671 L 1079.075 208.3671 Q 1077.25 207.3421 1073 206.3921 L 1073 206.3921 L 1073 206.3921 Q 1068.6 205.4421 1065.85 204.1921 L 1065.85 204.1921 L 1065.85 204.1921 Q 1063.1 202.9421 1061.7 200.9921 L 1061.7 200.9921 L 1061.7 200.9921 Q 1060.3 199.0421 1060.3 196.0421 L 1060.3 196.0421 L 1060.3 196.0421 Q 1060.3 192.9421 1062.05 190.4921 L 1062.05 190.4921 L 1062.05 190.4921 Q 1063.8 188.0421 1066.925 186.6671 L 1066.925 186.6671 L 1066.925 186.6671 Q 1070.05 185.2921 1073.95 185.2921 L 1073.95 185.2921 L 1073.95 185.2921 Q 1081.1 185.2921 1085.6 189.0921 L 1085.6 189.0921 L 1085.6 189.0921 Q 1086.25 189.6421 1086.525 190.1671 L 1086.525 190.1671 L 1086.525 190.1671 Q 1086.8 190.6921 1086.8 191.4921 L 1086.8 191.4921 L 1086.8 191.4921 Q 1086.8 192.5421 1086.175 193.3171 L 1086.175 193.3171 L 1086.175 193.3171 Q 1085.55 194.0921 1084.7 194.0921 L 1084.7 194.0921 L 1084.7 194.0921 Q 1084.2 194.0921 1083.775 193.9421 L 1083.775 193.9421 L 1083.775 193.9421 Q 1083.35 193.7921 1082.65 193.3921 L 1082.65 193.3921 L 1082.65 193.3921 Q 1080.6 191.8921 1078.675 191.1671 L 1078.675 191.1671 L 1078.675 191.1671 Q 1076.75 190.4421 1073.95 190.4421 L 1073.95 190.4421 L 1073.95 190.4421 Q 1070.55 190.4421 1068.575 191.8171 L 1068.575 191.8171 L 1068.575 191.8171 Q 1066.6 193.1921 1066.6 195.6421 L 1066.6 195.6421 L 1066.6 195.6421 Q 1066.6 197.6921 1068.35 198.7921 L 1068.35 198.7921 L 1068.35 198.7921 Q 1070.1 199.8921 1074.3 200.8421 L 1074.3 200.8421 L 1074.3 200.8421 Q 1078.75 201.8421 1081.525 203.0671 L 1081.525 203.0671 L 1081.525 203.0671 Q 1084.3 204.2921 1085.775 206.1921 L 1085.775 206.1921 L 1085.775 206.1921 Q 1087.25 208.0921 1087.25 210.9421 L 1087.25 210.9421 L 1087.25 210.9421 Q 1087.25 214.0421 1085.525 216.4171 L 1085.525 216.4171 L 1085.525 216.4171 Q 1083.8 218.7921 1080.675 220.1171 L 1080.675 220.1171 L 1080.675 220.1171 Q 1077.55 221.4421 1073.5 221.4421 L 1073.5 221.4421 L 1073.5 221.4421 Z  M 1106.95 195.9421 L 1106.95 195.9421 Q 1115.55 195.9421 1115.55 205.9921 L 1115.55 205.9921 L 1115.55 218.2921 L 1115.55 218.2921 Q 1115.55 219.6921 1114.725 220.4921 L 1114.725 220.4921 L 1114.725 220.4921 Q 1113.9 221.2921 1112.45 221.2921 L 1112.45 221.2921 L 1112.45 221.2921 Q 1111 221.2921 1110.15 220.4921 L 1110.15 220.4921 L 1110.15 220.4921 Q 1109.3 219.6921 1109.3 218.2921 L 1109.3 218.2921 L 1109.3 205.9921 L 1109.3 205.9921 Q 1109.3 203.3421 1108.225 202.1171 L 1108.225 202.1171 L 1108.225 202.1171 Q 1107.15 200.8921 1104.85 200.8921 L 1104.85 200.8921 L 1104.85 200.8921 Q 1102.15 200.8921 1100.525 202.5921 L 1100.525 202.5921 L 1100.525 202.5921 Q 1098.9 204.2921 1098.9 207.1421 L 1098.9 207.1421 L 1098.9 218.2921 L 1098.9 218.2921 Q 1098.9 219.6921 1098.05 220.4921 L 1098.05 220.4921 L 1098.05 220.4921 Q 1097.2 221.2921 1095.75 221.2921 L 1095.75 221.2921 L 1095.75 221.2921 Q 1094.3 221.2921 1093.475 220.4921 L 1093.475 220.4921 L 1093.475 220.4921 Q 1092.65 219.6921 1092.65 218.2921 L 1092.65 218.2921 L 1092.65 188.3921 L 1092.65 188.3921 Q 1092.65 187.0921 1093.525 186.2921 L 1093.525 186.2921 L 1093.525 186.2921 Q 1094.4 185.4921 1095.8 185.4921 L 1095.8 185.4921 L 1095.8 185.4921 Q 1097.2 185.4921 1098.05 186.2421 L 1098.05 186.2421 L 1098.05 186.2421 Q 1098.9 186.9921 1098.9 188.2921 L 1098.9 188.2921 L 1098.9 199.9421 L 1098.9 199.9421 Q 1100.15 197.9921 1102.225 196.9671 L 1102.225 196.9671 L 1102.225 196.9671 Q 1104.3 195.9421 1106.95 195.9421 L 1106.95 195.9421 L 1106.95 195.9421 Z  M 1133.05 221.3921 L 1133.05 221.3921 Q 1129.3 221.3921 1126.475 219.8421 L 1126.475 219.8421 L 1126.475 219.8421 Q 1123.65 218.2921 1122.1 215.3921 L 1122.1 215.3921 L 1122.1 215.3921 Q 1120.55 212.4921 1120.55 208.6421 L 1120.55 208.6421 L 1120.55 208.6421 Q 1120.55 204.7921 1122.1 201.9171 L 1122.1 201.9171 L 1122.1 201.9171 Q 1123.65 199.0421 1126.475 197.4921 L 1126.475 197.4921 L 1126.475 197.4921 Q 1129.3 195.9421 1133.05 195.9421 L 1133.05 195.9421 L 1133.05 195.9421 Q 1136.8 195.9421 1139.625 197.4921 L 1139.625 197.4921 L 1139.625 197.4921 Q 1142.45 199.0421 1143.975 201.9171 L 1143.975 201.9171 L 1143.975 201.9171 Q 1145.5 204.7921 1145.5 208.6421 L 1145.5 208.6421 L 1145.5 208.6421 Q 1145.5 212.4921 1143.975 215.3921 L 1143.975 215.3921 L 1143.975 215.3921 Q 1142.45 218.2921 1139.625 219.8421 L 1139.625 219.8421 L 1139.625 219.8421 Q 1136.8 221.3921 1133.05 221.3921 L 1133.05 221.3921 L 1133.05 221.3921 Z  M 1133 216.5421 L 1133 216.5421 Q 1136.05 216.5421 1137.65 214.5421 L 1137.65 214.5421 L 1137.65 214.5421 Q 1139.25 212.5421 1139.25 208.6421 L 1139.25 208.6421 L 1139.25 208.6421 Q 1139.25 204.7921 1137.65 202.7671 L 1137.65 202.7671 L 1137.65 202.7671 Q 1136.05 200.7421 1133.05 200.7421 L 1133.05 200.7421 L 1133.05 200.7421 Q 1130.05 200.7421 1128.425 202.7671 L 1128.425 202.7671 L 1128.425 202.7671 Q 1126.8 204.7921 1126.8 208.6421 L 1126.8 208.6421 L 1126.8 208.6421 Q 1126.8 212.5421 1128.4 214.5421 L 1128.4 214.5421 L 1128.4 214.5421 Q 1130 216.5421 1133 216.5421 L 1133 216.5421 L 1133 216.5421 Z  M 1183.7 197.8921 L 1183.7 197.8921 Q 1184.05 196.9921 1184.725 196.5421 L 1184.725 196.5421 L 1184.725 196.5421 Q 1185.4 196.0921 1186.2 196.0921 L 1186.2 196.0921 L 1186.2 196.0921 Q 1187.35 196.0921 1188.275 196.8671 L 1188.275 196.8671 L 1188.275 196.8671 Q 1189.2 197.6421 1189.2 198.7921 L 1189.2 198.7921 L 1189.2 198.7921 Q 1189.2 199.4421 1188.95 199.9421 L 1188.95 199.9421 L 1180.7 219.2921 L 1180.7 219.2921 Q 1180.3 220.2421 1179.475 220.7421 L 1179.475 220.7421 L 1179.475 220.7421 Q 1178.65 221.2421 1177.65 221.2421 L 1177.65 221.2421 L 1177.65 221.2421 Q 1176.7 221.2421 1175.875 220.7421 L 1175.875 220.7421 L 1175.875 220.7421 Q 1175.05 220.2421 1174.65 219.2921 L 1174.65 219.2921 L 1168.7 204.9921 L 1162.95 219.2921 L 1162.95 219.2921 Q 1162.55 220.2421 1161.725 220.7421 L 1161.725 220.7421 L 1161.725 220.7421 Q 1160.9 221.2421 1159.9 221.2421 L 1159.9 221.2421 L 1159.9 221.2421 Q 1158.95 221.2421 1158.1 220.7421 L 1158.1 220.7421 L 1158.1 220.7421 Q 1157.25 220.2421 1156.85 219.2921 L 1156.85 219.2921 L 1148.65 199.9421 L 1148.65 199.9421 Q 1148.4 199.2921 1148.4 198.8421 L 1148.4 198.8421 L 1148.4 198.8421 Q 1148.4 197.6921 1149.4 196.8671 L 1149.4 196.8671 L 1149.4 196.8671 Q 1150.4 196.0421 1151.6 196.0421 L 1151.6 196.0421 L 1151.6 196.0421 Q 1152.45 196.0421 1153.15 196.4921 L 1153.15 196.4921 L 1153.15 196.4921 Q 1153.85 196.9421 1154.2 197.8421 L 1154.2 197.8421 L 1160.1 213.0921 L 1166.15 197.9921 L 1166.15 197.9921 Q 1166.55 197.0421 1167.3 196.5671 L 1167.3 196.5671 L 1167.3 196.5671 Q 1168.05 196.0921 1168.95 196.0921 L 1168.95 196.0921 L 1168.95 196.0921 Q 1169.85 196.0921 1170.6 196.5671 L 1170.6 196.5671 L 1170.6 196.5671 Q 1171.35 197.0421 1171.75 197.9921 L 1171.75 197.9921 L 1177.85 213.1421 L 1183.7 197.8921 L 1183.7 197.8921 Z  M 1204.3 221.3921 L 1204.3 221.3921 Q 1200.65 221.3921 1197.875 219.8421 L 1197.875 219.8421 L 1197.875 219.8421 Q 1195.1 218.2921 1193.6 215.4421 L 1193.6 215.4421 L 1193.6 215.4421 Q 1192.1 212.5921 1192.1 208.7921 L 1192.1 208.7921 L 1192.1 208.7921 Q 1192.1 204.9921 1193.675 202.0671 L 1193.675 202.0671 L 1193.675 202.0671 Q 1195.25 199.1421 1198.1 197.5421 L 1198.1 197.5421 L 1198.1 197.5421 Q 1200.95 195.9421 1204.65 195.9421 L 1204.65 195.9421 L 1204.65 195.9421 Q 1206.6 195.9421 1208.575 196.4921 L 1208.575 196.4921 L 1208.575 196.4921 Q 1210.55 197.0421 1212.05 197.9921 L 1212.05 197.9921 L 1212.05 197.9921 Q 1213.65 199.0421 1213.65 200.6421 L 1213.65 200.6421 L 1213.65 200.6421 Q 1213.65 201.7421 1213.125 202.4171 L 1213.125 202.4171 L 1213.125 202.4171 Q 1212.6 203.0921 1211.75 203.0921 L 1211.75 203.0921 L 1211.75 203.0921 Q 1211.2 203.0921 1210.6 202.8421 L 1210.6 202.8421 L 1210.6 202.8421 Q 1210 202.5921 1209.4 202.2421 L 1209.4 202.2421 L 1209.4 202.2421 Q 1208.3 201.5921 1207.3 201.2171 L 1207.3 201.2171 L 1207.3 201.2171 Q 1206.3 200.8421 1205 200.8421 L 1205 200.8421 L 1205 200.8421 Q 1201.9 200.8421 1200.225 202.8671 L 1200.225 202.8671 L 1200.225 202.8671 Q 1198.55 204.8921 1198.55 208.6921 L 1198.55 208.6921 L 1198.55 208.6921 Q 1198.55 212.4421 1200.225 214.4671 L 1200.225 214.4671 L 1200.225 214.4671 Q 1201.9 216.4921 1205 216.4921 L 1205 216.4921 L 1205 216.4921 Q 1206.25 216.4921 1207.225 216.1171 L 1207.225 216.1171 L 1207.225 216.1171 Q 1208.2 215.7421 1209.4 215.0921 L 1209.4 215.0921 L 1209.4 215.0921 Q 1210.15 214.6421 1210.7 214.4171 L 1210.7 214.4171 L 1210.7 214.4171 Q 1211.25 214.1921 1211.8 214.1921 L 1211.8 214.1921 L 1211.8 214.1921 Q 1212.6 214.1921 1213.15 214.8921 L 1213.15 214.8921 L 1213.15 214.8921 Q 1213.7 215.5921 1213.7 216.6421 L 1213.7 216.6421 L 1213.7 216.6421 Q 1213.7 217.4921 1213.325 218.1171 L 1213.325 218.1171 L 1213.325 218.1171 Q 1212.95 218.7421 1212.1 219.2421 L 1212.1 219.2421 L 1212.1 219.2421 Q 1210.55 220.2421 1208.5 220.8171 L 1208.5 220.8171 L 1208.5 220.8171 Q 1206.45 221.3921 1204.3 221.3921 L 1204.3 221.3921 L 1204.3 221.3921 Z  M 1228.45 195.9421 L 1228.45 195.9421 Q 1233.55 195.9421 1236.025 198.4671 L 1236.025 198.4671 L 1236.025 198.4671 Q 1238.5 200.9921 1238.5 206.1421 L 1238.5 206.1421 L 1238.5 218.3421 L 1238.5 218.3421 Q 1238.5 219.6921 1237.7 220.4671 L 1237.7 220.4671 L 1237.7 220.4671 Q 1236.9 221.2421 1235.5 221.2421 L 1235.5 221.2421 L 1235.5 221.2421 Q 1234.2 221.2421 1233.375 220.4421 L 1233.375 220.4421 L 1233.375 220.4421 Q 1232.55 219.6421 1232.55 218.3421 L 1232.55 218.3421 L 1232.55 217.2421 L 1232.55 217.2421 Q 1231.7 219.1921 1229.875 220.2921 L 1229.875 220.2921 L 1229.875 220.2921 Q 1228.05 221.3921 1225.65 221.3921 L 1225.65 221.3921 L 1225.65 221.3921 Q 1223.2 221.3921 1221.2 220.3921 L 1221.2 220.3921 L 1221.2 220.3921 Q 1219.2 219.3921 1218.05 217.6421 L 1218.05 217.6421 L 1218.05 217.6421 Q 1216.9 215.8921 1216.9 213.7421 L 1216.9 213.7421 L 1216.9 213.7421 Q 1216.9 211.0421 1218.275 209.4921 L 1218.275 209.4921 L 1218.275 209.4921 Q 1219.65 207.9421 1222.75 207.2421 L 1222.75 207.2421 L 1222.75 207.2421 Q 1225.85 206.5421 1231.3 206.5421 L 1231.3 206.5421 L 1232.55 206.5421 L 1232.55 205.3921 L 1232.55 205.3921 Q 1232.55 202.9421 1231.5 201.8171 L 1231.5 201.8171 L 1231.5 201.8171 Q 1230.45 200.6921 1228.1 200.6921 L 1228.1 200.6921 L 1228.1 200.6921 Q 1226.65 200.6921 1225.15 201.1171 L 1225.15 201.1171 L 1225.15 201.1171 Q 1223.65 201.5421 1221.6 202.3421 L 1221.6 202.3421 L 1221.6 202.3421 Q 1220.3 202.9921 1219.7 202.9921 L 1219.7 202.9921 L 1219.7 202.9921 Q 1218.8 202.9921 1218.225 202.3421 L 1218.225 202.3421 L 1218.225 202.3421 Q 1217.65 201.6921 1217.65 200.6421 L 1217.65 200.6421 L 1217.65 200.6421 Q 1217.65 199.7921 1218.075 199.1671 L 1218.075 199.1671 L 1218.075 199.1671 Q 1218.5 198.5421 1219.5 197.9921 L 1219.5 197.9921 L 1219.5 197.9921 Q 1221.25 197.0421 1223.675 196.4921 L 1223.675 196.4921 L 1223.675 196.4921 Q 1226.1 195.9421 1228.45 195.9421 L 1228.45 195.9421 L 1228.45 195.9421 Z  M 1226.9 216.8921 L 1226.9 216.8921 Q 1229.4 216.8921 1230.975 215.2171 L 1230.975 215.2171 L 1230.975 215.2171 Q 1232.55 213.5421 1232.55 210.8921 L 1232.55 210.8921 L 1232.55 209.8421 L 1231.65 209.8421 L 1231.65 209.8421 Q 1228.3 209.8421 1226.45 210.1421 L 1226.45 210.1421 L 1226.45 210.1421 Q 1224.6 210.4421 1223.8 211.1921 L 1223.8 211.1921 L 1223.8 211.1921 Q 1223 211.9421 1223 213.2421 L 1223 213.2421 L 1223 213.2421 Q 1223 214.8421 1224.125 215.8671 L 1224.125 215.8671 L 1224.125 215.8671 Q 1225.25 216.8921 1226.9 216.8921 L 1226.9 216.8921 L 1226.9 216.8921 Z  M 1253.7 221.3921 L 1253.7 221.3921 Q 1248.25 221.3921 1244.9 219.2421 L 1244.9 219.2421 L 1244.9 219.2421 Q 1243.3 218.2921 1243.3 216.5421 L 1243.3 216.5421 L 1243.3 216.5421 Q 1243.3 215.5421 1243.85 214.9171 L 1243.85 214.9171 L 1243.85 214.9171 Q 1244.4 214.2921 1245.2 214.2921 L 1245.2 214.2921 L 1245.2 214.2921 Q 1246.05 214.2921 1247.55 215.0921 L 1247.55 215.0921 L 1247.55 215.0921 Q 1249.15 215.8421 1250.475 216.2421 L 1250.475 216.2421 L 1250.475 216.2421 Q 1251.8 216.6421 1253.85 216.6421 L 1253.85 216.6421 L 1253.85 216.6421 Q 1255.95 216.6421 1257.125 215.9421 L 1257.125 215.9421 L 1257.125 215.9421 Q 1258.3 215.2421 1258.3 213.9921 L 1258.3 213.9921 L 1258.3 213.9921 Q 1258.3 213.1421 1257.825 212.6421 L 1257.825 212.6421 L 1257.825 212.6421 Q 1257.35 212.1421 1256.125 211.7171 L 1256.125 211.7171 L 1256.125 211.7171 Q 1254.9 211.2921 1252.4 210.7421 L 1252.4 210.7421 L 1252.4 210.7421 Q 1247.95 209.8421 1246.025 208.1921 L 1246.025 208.1921 L 1246.025 208.1921 Q 1244.1 206.5421 1244.1 203.6421 L 1244.1 203.6421 L 1244.1 203.6421 Q 1244.1 201.4421 1245.4 199.6671 L 1245.4 199.6671 L 1245.4 199.6671 Q 1246.7 197.8921 1248.975 196.9171 L 1248.975 196.9171 L 1248.975 196.9171 Q 1251.25 195.9421 1254.15 195.9421 L 1254.15 195.9421 L 1254.15 195.9421 Q 1256.25 195.9421 1258.2 196.4671 L 1258.2 196.4671 L 1258.2 196.4671 Q 1260.15 196.9921 1261.7 197.9921 L 1261.7 197.9921 L 1261.7 197.9921 Q 1263.3 198.9921 1263.3 200.6421 L 1263.3 200.6421 L 1263.3 200.6421 Q 1263.3 201.6421 1262.75 202.3171 L 1262.75 202.3171 L 1262.75 202.3171 Q 1262.2 202.9921 1261.4 202.9921 L 1261.4 202.9921 L 1261.4 202.9921 Q 1260.85 202.9921 1260.325 202.7671 L 1260.325 202.7671 L 1260.325 202.7671 Q 1259.8 202.5421 1259 202.0921 L 1259 202.0921 L 1259 202.0921 Q 1257.55 201.3421 1256.5 200.9671 L 1256.5 200.9671 L 1256.5 200.9671 Q 1255.45 200.5921 1253.9 200.5921 L 1253.9 200.5921 L 1253.9 200.5921 Q 1252.05 200.5921 1250.975 201.3421 L 1250.975 201.3421 L 1250.975 201.3421 Q 1249.9 202.0921 1249.9 203.3921 L 1249.9 203.3921 L 1249.9 203.3921 Q 1249.9 204.6421 1251 205.2921 L 1251 205.2921 L 1251 205.2921 Q 1252.1 205.9421 1255.25 206.5921 L 1255.25 206.5921 L 1255.25 206.5921 Q 1258.6 207.2921 1260.5 208.1921 L 1260.5 208.1921 L 1260.5 208.1921 Q 1262.4 209.0921 1263.225 210.4421 L 1263.225 210.4421 L 1263.225 210.4421 Q 1264.05 211.7921 1264.05 213.8921 L 1264.05 213.8921 L 1264.05 213.8921 Q 1264.05 217.2921 1261.225 219.3421 L 1261.225 219.3421 L 1261.225 219.3421 Q 1258.4 221.3921 1253.7 221.3921 L 1253.7 221.3921 L 1253.7 221.3921 Z  M 1288.45 214.2921 L 1288.45 214.2921 Q 1289.3 214.2921 1289.825 214.9421 L 1289.825 214.9421 L 1289.825 214.9421 Q 1290.35 215.5921 1290.35 216.6921 L 1290.35 216.6921 L 1290.35 216.6921 Q 1290.35 218.2421 1288.5 219.2921 L 1288.5 219.2921 L 1288.5 219.2921 Q 1286.8 220.2421 1284.65 220.8171 L 1284.65 220.8171 L 1284.65 220.8171 Q 1282.5 221.3921 1280.55 221.3921 L 1280.55 221.3921 L 1280.55 221.3921 Q 1274.65 221.3921 1271.2 217.9921 L 1271.2 217.9921 L 1271.2 217.9921 Q 1267.75 214.5921 1267.75 208.6921 L 1267.75 208.6921 L 1267.75 208.6921 Q 1267.75 204.9421 1269.25 202.0421 L 1269.25 202.0421 L 1269.25 202.0421 Q 1270.75 199.1421 1273.475 197.5421 L 1273.475 197.5421 L 1273.475 197.5421 Q 1276.2 195.9421 1279.65 195.9421 L 1279.65 195.9421 L 1279.65 195.9421 Q 1282.95 195.9421 1285.4 197.3921 L 1285.4 197.3921 L 1285.4 197.3921 Q 1287.85 198.8421 1289.2 201.4921 L 1289.2 201.4921 L 1289.2 201.4921 Q 1290.55 204.1421 1290.55 207.7421 L 1290.55 207.7421 L 1290.55 207.7421 Q 1290.55 209.8921 1288.65 209.8921 L 1288.65 209.8921 L 1273.9 209.8921 L 1273.9 209.8921 Q 1274.2 213.3421 1275.85 214.9671 L 1275.85 214.9671 L 1275.85 214.9671 Q 1277.5 216.5921 1280.65 216.5921 L 1280.65 216.5921 L 1280.65 216.5921 Q 1282.25 216.5921 1283.475 216.1921 L 1283.475 216.1921 L 1283.475 216.1921 Q 1284.7 215.7921 1286.25 215.0921 L 1286.25 215.0921 L 1286.25 215.0921 Q 1287.75 214.2921 1288.45 214.2921 L 1288.45 214.2921 L 1288.45 214.2921 Z  M 1279.8 200.3421 L 1279.8 200.3421 Q 1277.25 200.3421 1275.725 201.9421 L 1275.725 201.9421 L 1275.725 201.9421 Q 1274.2 203.5421 1273.9 206.5421 L 1273.9 206.5421 L 1285.2 206.5421 L 1285.2 206.5421 Q 1285.1 203.4921 1283.7 201.9171 L 1283.7 201.9171 L 1283.7 201.9171 Q 1282.3 200.3421 1279.8 200.3421 L 1279.8 200.3421 L 1279.8 200.3421 Z " fill-rule="evenodd" fill="rgb(242,242,242)"/></g></svg>