<?xml version="1.0" standalone="no"?><!-- Generator: Gravit.io --><svg xmlns="http://www.w3.org/2000/svg" xmlns:xlink="http://www.w3.org/1999/xlink" style="isolation:isolate" viewBox="283.558 683 186.884 186.699" width="186.884" height="186.699"><linearGradient id="_lgradient_2" x1="27.21367757189144%" y1="6.742092112035934%" x2="93.61397993692684%" y2="122.53234760285532%"><stop offset="0%" stop-opacity="1" style="stop-color:rgb(44,242,73)"/><stop offset="97.3913043478261%" stop-opacity="1" style="stop-color:rgb(16,112,230)"/></linearGradient><path d=" M 468.44153 770.06045 L 461.77166 761.37208 C 459.06165 757.84198 457.35621 751.39692 457.9655 746.98849 L 459.44615 736.27559 C 460.05544 731.86716 457.19142 726.95619 453.05448 725.31568 L 442.87659 721.27962 C 438.73965 719.63911 434.04912 714.94856 432.40862 710.81163 L 428.37255 700.63372 C 426.73204 696.49679 421.82108 693.6328 417.41263 694.24209 L 406.69974 695.72273 C 402.29132 696.33203 395.84947 694.62237 392.32332 691.90725 L 383.40364 685.03908 C 379.87749 682.32396 374.14874 682.31978 370.61866 685.02974 L 361.93029 691.69961 C 358.4002 694.40957 351.95511 696.11506 347.54669 695.50576 L 336.83378 694.02512 C 332.42535 693.41582 327.51439 696.27982 325.87388 700.41675 L 321.83781 710.59466 C 320.19731 714.73159 315.50675 719.42214 311.36984 721.06264 L 301.19193 725.09871 C 297.05499 726.73922 294.19099 731.65018 294.80028 736.05861 L 296.28093 746.77152 C 296.89022 751.17994 295.18056 757.6218 292.46545 761.14793 L 285.59727 770.06763 C 282.88216 773.59376 282.87797 779.32251 285.58794 782.8526 L 292.25781 791.54097 C 294.96777 795.07107 296.67326 801.51614 296.06395 805.92457 L 294.58332 816.63747 C 293.97403 821.04589 296.83803 825.95686 300.97494 827.59736 L 311.15285 831.63343 C 315.28979 833.27393 319.98032 837.96449 321.62085 842.10142 L 325.6569 852.27933 C 327.29743 856.41626 332.20839 859.28025 336.61682 858.67097 L 347.32973 857.19032 C 351.73815 856.58102 358.18321 858.2865 361.7133 860.99648 L 370.40167 867.66634 C 373.93176 870.3763 379.66374 870.3763 383.19382 867.66634 L 391.8822 860.99648 C 395.41228 858.2865 401.85737 856.58102 406.26579 857.19032 L 416.9787 858.67097 C 421.38713 859.28025 426.29809 856.41626 427.9386 852.27933 L 431.97467 842.10142 C 433.61517 837.96449 438.29573 833.24903 442.42037 831.57784 L 452.64283 827.43598 C 456.76749 825.76479 459.62146 820.82892 459.01218 816.42049 L 457.53152 805.70759 C 456.92224 801.29917 458.67762 794.89311 461.44906 791.41106 L 468.33014 782.76556 C 471.10159 779.28351 471.15148 773.59054 468.44153 770.06045 Z  M 413.61038 737.39005 C 404.04017 728.39259 391.15907 722.87742 377 722.87742 C 356.19229 722.87742 338.14456 734.78813 329.30857 752.15772 L 358.88658 752.15772 C 364.46021 752.15772 368.98528 756.68279 368.98528 762.25641 C 368.98528 767.83003 364.46021 772.3551 358.88658 772.3551 L 323.67525 772.3551 C 323.57768 773.67387 323.52802 775.00589 323.52802 776.34941 C 323.52802 777.4893 323.56377 778.62091 323.6342 779.74317 L 352.75476 779.74317 C 356.77508 779.74317 360.03907 782.88087 360.03907 786.74564 C 360.03907 790.6104 356.77508 793.7481 352.75476 793.7481 L 326.42704 793.7481 C 333.65286 814.72958 353.5779 829.82139 377 829.82139 C 389.478 829.82139 400.96349 825.53807 410.06506 818.36281 L 405.44897 818.36281 C 400.29595 818.36281 396.11236 814.17921 396.11236 809.0262 C 396.11236 803.87318 400.29595 799.68958 405.44897 799.68958 L 425.11506 799.68958 C 426.17772 797.505 427.09595 795.23743 427.85729 792.89931 L 412.73551 792.89931 C 409.105 792.89931 406.15744 789.95178 406.15744 786.32124 C 406.15744 782.69071 409.105 779.74317 412.73551 779.74317 L 430.36582 779.74317 C 430.43625 778.62091 430.47197 777.4893 430.47197 776.34941 C 430.47197 767.64511 428.3877 759.42378 424.69142 752.15772 L 390.76444 752.15772 C 386.68918 752.15772 383.38061 748.84913 383.38061 744.77388 C 383.38061 740.69863 386.68918 737.39005 390.76444 737.39005 L 413.61038 737.39005 Z  M 396.68841 762.25641 L 419.74588 762.25641 C 423.37641 762.25641 426.32395 765.20395 426.32395 768.83448 C 426.32395 772.46501 423.37641 775.41255 419.74588 775.41255 L 396.68841 775.41255 C 393.05787 775.41255 390.11034 772.46501 390.11034 768.83448 C 390.11034 765.20395 393.05787 762.25641 396.68841 762.25641 Z " fill-rule="evenodd" fill="url(#_lgradient_2)"/></svg>