<?xml version="1.0" standalone="no"?><!-- Generator: Gravit.io --><svg xmlns="http://www.w3.org/2000/svg" xmlns:xlink="http://www.w3.org/1999/xlink" style="isolation:isolate" viewBox="207.5 155 339 99.084" width="339" height="99.084"><g id="Logo with Text"><linearGradient id="_lgradient_3" x1="27.21367757189144%" y1="6.742092112035934%" x2="93.61397993692684%" y2="122.53234760285532%"><stop offset="0%" stop-opacity="1" style="stop-color:rgb(44,242,73)"/><stop offset="97.3913043478261%" stop-opacity="1" style="stop-color:rgb(16,112,230)"/></linearGradient><path d=" M 282.0382 202.0066 L 279.3492 198.5038 C 278.2566 197.0806 277.569 194.4822 277.8147 192.7049 L 278.4116 188.3858 C 278.6573 186.6085 277.5026 184.6286 275.8347 183.9672 L 271.7314 182.34 C 270.0635 181.6786 268.1725 179.7875 267.5111 178.1197 L 265.8839 174.0163 C 265.2225 172.3485 263.2426 171.1938 261.4652 171.4395 L 257.1462 172.0364 C 255.3689 172.282 252.7717 171.5928 251.3501 170.4981 L 247.754 167.7291 C 246.3324 166.6345 244.0228 166.6328 242.5996 167.7254 L 239.0968 170.4144 C 237.6736 171.507 235.0751 172.1946 233.2978 171.9489 L 228.9788 171.352 C 227.2015 171.1063 225.2215 172.261 224.5601 173.9288 L 222.9329 178.0322 C 222.2716 179.7001 220.3805 181.5911 218.7126 182.2525 L 214.6093 183.8797 C 212.9414 184.5411 211.7868 186.521 212.0324 188.2983 L 212.6293 192.6174 C 212.875 194.3947 212.1857 196.9918 211.0911 198.4134 L 208.3221 202.0095 C 207.2274 203.4311 207.2258 205.7408 208.3183 207.164 L 211.0074 210.6668 C 212.0999 212.09 212.7875 214.6884 212.5419 216.4658 L 211.9449 220.7848 C 211.6993 222.5621 212.8539 224.542 214.5218 225.2034 L 218.6252 226.8306 C 220.293 227.492 222.1841 229.3831 222.8455 231.0509 L 224.4727 235.1543 C 225.1341 236.8222 227.114 237.9768 228.8913 237.7312 L 233.2104 237.1342 C 234.9877 236.8886 237.5861 237.5762 239.0093 238.6687 L 242.5121 241.3578 C 243.9353 242.4503 246.2462 242.4503 247.6695 241.3578 L 251.1723 238.6687 C 252.5955 237.5762 255.1939 236.8886 256.9712 237.1342 L 261.2903 237.7312 C 263.0676 237.9768 265.0475 236.8222 265.7089 235.1543 L 267.3361 231.0509 C 267.9975 229.3831 269.8845 227.482 271.5474 226.8082 L 275.6688 225.1384 C 277.3317 224.4646 278.4823 222.4746 278.2366 220.6973 L 277.6397 216.3783 C 277.3941 214.601 278.1018 212.0183 279.2191 210.6144 L 281.9933 207.1289 C 283.1107 205.725 283.1308 203.4299 282.0382 202.0066 Z  M 259.9323 188.8351 C 256.0739 185.2077 250.8807 182.9842 245.1723 182.9842 C 236.7834 182.9842 229.5072 187.7861 225.9449 194.7889 L 237.8697 194.7889 C 240.1167 194.7889 241.9411 196.6133 241.9411 198.8603 C 241.9411 201.1074 240.1167 202.9318 237.8697 202.9318 L 223.6737 202.9318 C 223.6344 203.4634 223.6144 204.0005 223.6144 204.5421 C 223.6144 205.0017 223.6288 205.4579 223.6572 205.9104 L 235.3975 205.9104 C 237.0184 205.9104 238.3343 207.1754 238.3343 208.7335 C 238.3343 210.2916 237.0184 211.5566 235.3975 211.5566 L 224.7832 211.5566 C 227.6963 220.0156 235.7294 226.1001 245.1723 226.1001 C 250.203 226.1001 254.8335 224.3732 258.503 221.4804 L 256.6419 221.4804 C 254.5644 221.4804 252.8777 219.7937 252.8777 217.7162 C 252.8777 215.6387 254.5644 213.952 256.6419 213.952 L 264.5706 213.952 C 264.999 213.0713 265.3692 212.1571 265.6761 211.2144 L 259.5796 211.2144 C 258.1159 211.2144 256.9275 210.0261 256.9275 208.5624 C 256.9275 207.0987 258.1159 205.9104 259.5796 205.9104 L 266.6875 205.9104 C 266.7159 205.4579 266.7303 205.0017 266.7303 204.5421 C 266.7303 201.0329 265.89 197.7183 264.3998 194.7889 L 250.7216 194.7889 C 249.0786 194.7889 247.7448 193.455 247.7448 191.812 C 247.7448 190.169 249.0786 188.8351 250.7216 188.8351 L 259.9323 188.8351 Z  M 253.11 198.8603 L 262.4059 198.8603 C 263.8696 198.8603 265.0579 200.0487 265.0579 201.5124 C 265.0579 202.9761 263.8696 204.1644 262.4059 204.1644 L 253.11 204.1644 C 251.6463 204.1644 250.4579 202.9761 250.4579 201.5124 C 250.4579 200.0487 251.6463 198.8603 253.11 198.8603 Z " fill-rule="evenodd" fill="url(#_lgradient_3)"/><path d=" M 319.5 221.4421 L 319.5 221.4421 Q 315.65 221.4421 312.225 220.4171 L 312.225 220.4171 L 312.225 220.4171 Q 308.8 219.3921 306.65 217.6421 L 306.65 217.6421 L 306.65 217.6421 Q 305.5 216.7921 305.5 215.2421 L 305.5 215.2421 L 305.5 215.2421 Q 305.5 214.1921 306.125 213.4171 L 306.125 213.4171 L 306.125 213.4171 Q 306.75 212.6421 307.6 212.6421 L 307.6 212.6421 L 307.6 212.6421 Q 308.5 212.6421 309.65 213.3421 L 309.65 213.3421 L 309.65 213.3421 Q 311.8 214.8921 314.15 215.5921 L 314.15 215.5921 L 314.15 215.5921 Q 316.5 216.2921 319.35 216.2921 L 319.35 216.2921 L 319.35 216.2921 Q 323 216.2921 324.95 215.0171 L 324.95 215.0171 L 324.95 215.0171 Q 326.9 213.7421 326.9 211.2921 L 326.9 211.2921 L 326.9 211.2921 Q 326.9 209.3921 325.075 208.3671 L 325.075 208.3671 L 325.075 208.3671 Q 323.25 207.3421 319 206.3921 L 319 206.3921 L 319 206.3921 Q 314.6 205.4421 311.85 204.1921 L 311.85 204.1921 L 311.85 204.1921 Q 309.1 202.9421 307.7 200.9921 L 307.7 200.9921 L 307.7 200.9921 Q 306.3 199.0421 306.3 196.0421 L 306.3 196.0421 L 306.3 196.0421 Q 306.3 192.9421 308.05 190.4921 L 308.05 190.4921 L 308.05 190.4921 Q 309.8 188.0421 312.925 186.6671 L 312.925 186.6671 L 312.925 186.6671 Q 316.05 185.2921 319.95 185.2921 L 319.95 185.2921 L 319.95 185.2921 Q 327.1 185.2921 331.6 189.0921 L 331.6 189.0921 L 331.6 189.0921 Q 332.25 189.6421 332.525 190.1671 L 332.525 190.1671 L 332.525 190.1671 Q 332.8 190.6921 332.8 191.4921 L 332.8 191.4921 L 332.8 191.4921 Q 332.8 192.5421 332.175 193.3171 L 332.175 193.3171 L 332.175 193.3171 Q 331.55 194.0921 330.7 194.0921 L 330.7 194.0921 L 330.7 194.0921 Q 330.2 194.0921 329.775 193.9421 L 329.775 193.9421 L 329.775 193.9421 Q 329.35 193.7921 328.65 193.3921 L 328.65 193.3921 L 328.65 193.3921 Q 326.6 191.8921 324.675 191.1671 L 324.675 191.1671 L 324.675 191.1671 Q 322.75 190.4421 319.95 190.4421 L 319.95 190.4421 L 319.95 190.4421 Q 316.55 190.4421 314.575 191.8171 L 314.575 191.8171 L 314.575 191.8171 Q 312.6 193.1921 312.6 195.6421 L 312.6 195.6421 L 312.6 195.6421 Q 312.6 197.6921 314.35 198.7921 L 314.35 198.7921 L 314.35 198.7921 Q 316.1 199.8921 320.3 200.8421 L 320.3 200.8421 L 320.3 200.8421 Q 324.75 201.8421 327.525 203.0671 L 327.525 203.0671 L 327.525 203.0671 Q 330.3 204.2921 331.775 206.1921 L 331.775 206.1921 L 331.775 206.1921 Q 333.25 208.0921 333.25 210.9421 L 333.25 210.9421 L 333.25 210.9421 Q 333.25 214.0421 331.525 216.4171 L 331.525 216.4171 L 331.525 216.4171 Q 329.8 218.7921 326.675 220.1171 L 326.675 220.1171 L 326.675 220.1171 Q 323.55 221.4421 319.5 221.4421 L 319.5 221.4421 L 319.5 221.4421 Z  M 352.95 195.9421 L 352.95 195.9421 Q 361.55 195.9421 361.55 205.9921 L 361.55 205.9921 L 361.55 218.2921 L 361.55 218.2921 Q 361.55 219.6921 360.725 220.4921 L 360.725 220.4921 L 360.725 220.4921 Q 359.9 221.2921 358.45 221.2921 L 358.45 221.2921 L 358.45 221.2921 Q 357 221.2921 356.15 220.4921 L 356.15 220.4921 L 356.15 220.4921 Q 355.3 219.6921 355.3 218.2921 L 355.3 218.2921 L 355.3 205.9921 L 355.3 205.9921 Q 355.3 203.3421 354.225 202.1171 L 354.225 202.1171 L 354.225 202.1171 Q 353.15 200.8921 350.85 200.8921 L 350.85 200.8921 L 350.85 200.8921 Q 348.15 200.8921 346.525 202.5921 L 346.525 202.5921 L 346.525 202.5921 Q 344.9 204.2921 344.9 207.1421 L 344.9 207.1421 L 344.9 218.2921 L 344.9 218.2921 Q 344.9 219.6921 344.05 220.4921 L 344.05 220.4921 L 344.05 220.4921 Q 343.2 221.2921 341.75 221.2921 L 341.75 221.2921 L 341.75 221.2921 Q 340.3 221.2921 339.475 220.4921 L 339.475 220.4921 L 339.475 220.4921 Q 338.65 219.6921 338.65 218.2921 L 338.65 218.2921 L 338.65 188.3921 L 338.65 188.3921 Q 338.65 187.0921 339.525 186.2921 L 339.525 186.2921 L 339.525 186.2921 Q 340.4 185.4921 341.8 185.4921 L 341.8 185.4921 L 341.8 185.4921 Q 343.2 185.4921 344.05 186.2421 L 344.05 186.2421 L 344.05 186.2421 Q 344.9 186.9921 344.9 188.2921 L 344.9 188.2921 L 344.9 199.9421 L 344.9 199.9421 Q 346.15 197.9921 348.225 196.9671 L 348.225 196.9671 L 348.225 196.9671 Q 350.3 195.9421 352.95 195.9421 L 352.95 195.9421 L 352.95 195.9421 Z  M 379.05 221.3921 L 379.05 221.3921 Q 375.3 221.3921 372.475 219.8421 L 372.475 219.8421 L 372.475 219.8421 Q 369.65 218.2921 368.1 215.3921 L 368.1 215.3921 L 368.1 215.3921 Q 366.55 212.4921 366.55 208.6421 L 366.55 208.6421 L 366.55 208.6421 Q 366.55 204.7921 368.1 201.9171 L 368.1 201.9171 L 368.1 201.9171 Q 369.65 199.0421 372.475 197.4921 L 372.475 197.4921 L 372.475 197.4921 Q 375.3 195.9421 379.05 195.9421 L 379.05 195.9421 L 379.05 195.9421 Q 382.8 195.9421 385.625 197.4921 L 385.625 197.4921 L 385.625 197.4921 Q 388.45 199.0421 389.975 201.9171 L 389.975 201.9171 L 389.975 201.9171 Q 391.5 204.7921 391.5 208.6421 L 391.5 208.6421 L 391.5 208.6421 Q 391.5 212.4921 389.975 215.3921 L 389.975 215.3921 L 389.975 215.3921 Q 388.45 218.2921 385.625 219.8421 L 385.625 219.8421 L 385.625 219.8421 Q 382.8 221.3921 379.05 221.3921 L 379.05 221.3921 L 379.05 221.3921 Z  M 379 216.5421 L 379 216.5421 Q 382.05 216.5421 383.65 214.5421 L 383.65 214.5421 L 383.65 214.5421 Q 385.25 212.5421 385.25 208.6421 L 385.25 208.6421 L 385.25 208.6421 Q 385.25 204.7921 383.65 202.7671 L 383.65 202.7671 L 383.65 202.7671 Q 382.05 200.7421 379.05 200.7421 L 379.05 200.7421 L 379.05 200.7421 Q 376.05 200.7421 374.425 202.7671 L 374.425 202.7671 L 374.425 202.7671 Q 372.8 204.7921 372.8 208.6421 L 372.8 208.6421 L 372.8 208.6421 Q 372.8 212.5421 374.4 214.5421 L 374.4 214.5421 L 374.4 214.5421 Q 376 216.5421 379 216.5421 L 379 216.5421 L 379 216.5421 Z  M 429.7 197.8921 L 429.7 197.8921 Q 430.05 196.9921 430.725 196.5421 L 430.725 196.5421 L 430.725 196.5421 Q 431.4 196.0921 432.2 196.0921 L 432.2 196.0921 L 432.2 196.0921 Q 433.35 196.0921 434.275 196.8671 L 434.275 196.8671 L 434.275 196.8671 Q 435.2 197.6421 435.2 198.7921 L 435.2 198.7921 L 435.2 198.7921 Q 435.2 199.4421 434.95 199.9421 L 434.95 199.9421 L 426.7 219.2921 L 426.7 219.2921 Q 426.3 220.2421 425.475 220.7421 L 425.475 220.7421 L 425.475 220.7421 Q 424.65 221.2421 423.65 221.2421 L 423.65 221.2421 L 423.65 221.2421 Q 422.7 221.2421 421.875 220.7421 L 421.875 220.7421 L 421.875 220.7421 Q 421.05 220.2421 420.65 219.2921 L 420.65 219.2921 L 414.7 204.9921 L 408.95 219.2921 L 408.95 219.2921 Q 408.55 220.2421 407.725 220.7421 L 407.725 220.7421 L 407.725 220.7421 Q 406.9 221.2421 405.9 221.2421 L 405.9 221.2421 L 405.9 221.2421 Q 404.95 221.2421 404.1 220.7421 L 404.1 220.7421 L 404.1 220.7421 Q 403.25 220.2421 402.85 219.2921 L 402.85 219.2921 L 394.65 199.9421 L 394.65 199.9421 Q 394.4 199.2921 394.4 198.8421 L 394.4 198.8421 L 394.4 198.8421 Q 394.4 197.6921 395.4 196.8671 L 395.4 196.8671 L 395.4 196.8671 Q 396.4 196.0421 397.6 196.0421 L 397.6 196.0421 L 397.6 196.0421 Q 398.45 196.0421 399.15 196.4921 L 399.15 196.4921 L 399.15 196.4921 Q 399.85 196.9421 400.2 197.8421 L 400.2 197.8421 L 406.1 213.0921 L 412.15 197.9921 L 412.15 197.9921 Q 412.55 197.0421 413.3 196.5671 L 413.3 196.5671 L 413.3 196.5671 Q 414.05 196.0921 414.95 196.0921 L 414.95 196.0921 L 414.95 196.0921 Q 415.85 196.0921 416.6 196.5671 L 416.6 196.5671 L 416.6 196.5671 Q 417.35 197.0421 417.75 197.9921 L 417.75 197.9921 L 423.85 213.1421 L 429.7 197.8921 L 429.7 197.8921 Z  M 450.3 221.3921 L 450.3 221.3921 Q 446.65 221.3921 443.875 219.8421 L 443.875 219.8421 L 443.875 219.8421 Q 441.1 218.2921 439.6 215.4421 L 439.6 215.4421 L 439.6 215.4421 Q 438.1 212.5921 438.1 208.7921 L 438.1 208.7921 L 438.1 208.7921 Q 438.1 204.9921 439.675 202.0671 L 439.675 202.0671 L 439.675 202.0671 Q 441.25 199.1421 444.1 197.5421 L 444.1 197.5421 L 444.1 197.5421 Q 446.95 195.9421 450.65 195.9421 L 450.65 195.9421 L 450.65 195.9421 Q 452.6 195.9421 454.575 196.4921 L 454.575 196.4921 L 454.575 196.4921 Q 456.55 197.0421 458.05 197.9921 L 458.05 197.9921 L 458.05 197.9921 Q 459.65 199.0421 459.65 200.6421 L 459.65 200.6421 L 459.65 200.6421 Q 459.65 201.7421 459.125 202.4171 L 459.125 202.4171 L 459.125 202.4171 Q 458.6 203.0921 457.75 203.0921 L 457.75 203.0921 L 457.75 203.0921 Q 457.2 203.0921 456.6 202.8421 L 456.6 202.8421 L 456.6 202.8421 Q 456 202.5921 455.4 202.2421 L 455.4 202.2421 L 455.4 202.2421 Q 454.3 201.5921 453.3 201.2171 L 453.3 201.2171 L 453.3 201.2171 Q 452.3 200.8421 451 200.8421 L 451 200.8421 L 451 200.8421 Q 447.9 200.8421 446.225 202.8671 L 446.225 202.8671 L 446.225 202.8671 Q 444.55 204.8921 444.55 208.6921 L 444.55 208.6921 L 444.55 208.6921 Q 444.55 212.4421 446.225 214.4671 L 446.225 214.4671 L 446.225 214.4671 Q 447.9 216.4921 451 216.4921 L 451 216.4921 L 451 216.4921 Q 452.25 216.4921 453.225 216.1171 L 453.225 216.1171 L 453.225 216.1171 Q 454.2 215.7421 455.4 215.0921 L 455.4 215.0921 L 455.4 215.0921 Q 456.15 214.6421 456.7 214.4171 L 456.7 214.4171 L 456.7 214.4171 Q 457.25 214.1921 457.8 214.1921 L 457.8 214.1921 L 457.8 214.1921 Q 458.6 214.1921 459.15 214.8921 L 459.15 214.8921 L 459.15 214.8921 Q 459.7 215.5921 459.7 216.6421 L 459.7 216.6421 L 459.7 216.6421 Q 459.7 217.4921 459.325 218.1171 L 459.325 218.1171 L 459.325 218.1171 Q 458.95 218.7421 458.1 219.2421 L 458.1 219.2421 L 458.1 219.2421 Q 456.55 220.2421 454.5 220.8171 L 454.5 220.8171 L 454.5 220.8171 Q 452.45 221.3921 450.3 221.3921 L 450.3 221.3921 L 450.3 221.3921 Z  M 474.45 195.9421 L 474.45 195.9421 Q 479.55 195.9421 482.025 198.4671 L 482.025 198.4671 L 482.025 198.4671 Q 484.5 200.9921 484.5 206.1421 L 484.5 206.1421 L 484.5 218.3421 L 484.5 218.3421 Q 484.5 219.6921 483.7 220.4671 L 483.7 220.4671 L 483.7 220.4671 Q 482.9 221.2421 481.5 221.2421 L 481.5 221.2421 L 481.5 221.2421 Q 480.2 221.2421 479.375 220.4421 L 479.375 220.4421 L 479.375 220.4421 Q 478.55 219.6421 478.55 218.3421 L 478.55 218.3421 L 478.55 217.2421 L 478.55 217.2421 Q 477.7 219.1921 475.875 220.2921 L 475.875 220.2921 L 475.875 220.2921 Q 474.05 221.3921 471.65 221.3921 L 471.65 221.3921 L 471.65 221.3921 Q 469.2 221.3921 467.2 220.3921 L 467.2 220.3921 L 467.2 220.3921 Q 465.2 219.3921 464.05 217.6421 L 464.05 217.6421 L 464.05 217.6421 Q 462.9 215.8921 462.9 213.7421 L 462.9 213.7421 L 462.9 213.7421 Q 462.9 211.0421 464.275 209.4921 L 464.275 209.4921 L 464.275 209.4921 Q 465.65 207.9421 468.75 207.2421 L 468.75 207.2421 L 468.75 207.2421 Q 471.85 206.5421 477.3 206.5421 L 477.3 206.5421 L 478.55 206.5421 L 478.55 205.3921 L 478.55 205.3921 Q 478.55 202.9421 477.5 201.8171 L 477.5 201.8171 L 477.5 201.8171 Q 476.45 200.6921 474.1 200.6921 L 474.1 200.6921 L 474.1 200.6921 Q 472.65 200.6921 471.15 201.1171 L 471.15 201.1171 L 471.15 201.1171 Q 469.65 201.5421 467.6 202.3421 L 467.6 202.3421 L 467.6 202.3421 Q 466.3 202.9921 465.7 202.9921 L 465.7 202.9921 L 465.7 202.9921 Q 464.8 202.9921 464.225 202.3421 L 464.225 202.3421 L 464.225 202.3421 Q 463.65 201.6921 463.65 200.6421 L 463.65 200.6421 L 463.65 200.6421 Q 463.65 199.7921 464.075 199.1671 L 464.075 199.1671 L 464.075 199.1671 Q 464.5 198.5421 465.5 197.9921 L 465.5 197.9921 L 465.5 197.9921 Q 467.25 197.0421 469.675 196.4921 L 469.675 196.4921 L 469.675 196.4921 Q 472.1 195.9421 474.45 195.9421 L 474.45 195.9421 L 474.45 195.9421 Z  M 472.9 216.8921 L 472.9 216.8921 Q 475.4 216.8921 476.975 215.2171 L 476.975 215.2171 L 476.975 215.2171 Q 478.55 213.5421 478.55 210.8921 L 478.55 210.8921 L 478.55 209.8421 L 477.65 209.8421 L 477.65 209.8421 Q 474.3 209.8421 472.45 210.1421 L 472.45 210.1421 L 472.45 210.1421 Q 470.6 210.4421 469.8 211.1921 L 469.8 211.1921 L 469.8 211.1921 Q 469 211.9421 469 213.2421 L 469 213.2421 L 469 213.2421 Q 469 214.8421 470.125 215.8671 L 470.125 215.8671 L 470.125 215.8671 Q 471.25 216.8921 472.9 216.8921 L 472.9 216.8921 L 472.9 216.8921 Z  M 499.7 221.3921 L 499.7 221.3921 Q 494.25 221.3921 490.9 219.2421 L 490.9 219.2421 L 490.9 219.2421 Q 489.3 218.2921 489.3 216.5421 L 489.3 216.5421 L 489.3 216.5421 Q 489.3 215.5421 489.85 214.9171 L 489.85 214.9171 L 489.85 214.9171 Q 490.4 214.2921 491.2 214.2921 L 491.2 214.2921 L 491.2 214.2921 Q 492.05 214.2921 493.55 215.0921 L 493.55 215.0921 L 493.55 215.0921 Q 495.15 215.8421 496.475 216.2421 L 496.475 216.2421 L 496.475 216.2421 Q 497.8 216.6421 499.85 216.6421 L 499.85 216.6421 L 499.85 216.6421 Q 501.95 216.6421 503.125 215.9421 L 503.125 215.9421 L 503.125 215.9421 Q 504.3 215.2421 504.3 213.9921 L 504.3 213.9921 L 504.3 213.9921 Q 504.3 213.1421 503.825 212.6421 L 503.825 212.6421 L 503.825 212.6421 Q 503.35 212.1421 502.125 211.7171 L 502.125 211.7171 L 502.125 211.7171 Q 500.9 211.2921 498.4 210.7421 L 498.4 210.7421 L 498.4 210.7421 Q 493.95 209.8421 492.025 208.1921 L 492.025 208.1921 L 492.025 208.1921 Q 490.1 206.5421 490.1 203.6421 L 490.1 203.6421 L 490.1 203.6421 Q 490.1 201.4421 491.4 199.6671 L 491.4 199.6671 L 491.4 199.6671 Q 492.7 197.8921 494.975 196.9171 L 494.975 196.9171 L 494.975 196.9171 Q 497.25 195.9421 500.15 195.9421 L 500.15 195.9421 L 500.15 195.9421 Q 502.25 195.9421 504.2 196.4671 L 504.2 196.4671 L 504.2 196.4671 Q 506.15 196.9921 507.7 197.9921 L 507.7 197.9921 L 507.7 197.9921 Q 509.3 198.9921 509.3 200.6421 L 509.3 200.6421 L 509.3 200.6421 Q 509.3 201.6421 508.75 202.3171 L 508.75 202.3171 L 508.75 202.3171 Q 508.2 202.9921 507.4 202.9921 L 507.4 202.9921 L 507.4 202.9921 Q 506.85 202.9921 506.325 202.7671 L 506.325 202.7671 L 506.325 202.7671 Q 505.8 202.5421 505 202.0921 L 505 202.0921 L 505 202.0921 Q 503.55 201.3421 502.5 200.9671 L 502.5 200.9671 L 502.5 200.9671 Q 501.45 200.5921 499.9 200.5921 L 499.9 200.5921 L 499.9 200.5921 Q 498.05 200.5921 496.975 201.3421 L 496.975 201.3421 L 496.975 201.3421 Q 495.9 202.0921 495.9 203.3921 L 495.9 203.3921 L 495.9 203.3921 Q 495.9 204.6421 497 205.2921 L 497 205.2921 L 497 205.2921 Q 498.1 205.9421 501.25 206.5921 L 501.25 206.5921 L 501.25 206.5921 Q 504.6 207.2921 506.5 208.1921 L 506.5 208.1921 L 506.5 208.1921 Q 508.4 209.0921 509.225 210.4421 L 509.225 210.4421 L 509.225 210.4421 Q 510.05 211.7921 510.05 213.8921 L 510.05 213.8921 L 510.05 213.8921 Q 510.05 217.2921 507.225 219.3421 L 507.225 219.3421 L 507.225 219.3421 Q 504.4 221.3921 499.7 221.3921 L 499.7 221.3921 L 499.7 221.3921 Z  M 534.45 214.2921 L 534.45 214.2921 Q 535.3 214.2921 535.825 214.9421 L 535.825 214.9421 L 535.825 214.9421 Q 536.35 215.5921 536.35 216.6921 L 536.35 216.6921 L 536.35 216.6921 Q 536.35 218.2421 534.5 219.2921 L 534.5 219.2921 L 534.5 219.2921 Q 532.8 220.2421 530.65 220.8171 L 530.65 220.8171 L 530.65 220.8171 Q 528.5 221.3921 526.55 221.3921 L 526.55 221.3921 L 526.55 221.3921 Q 520.65 221.3921 517.2 217.9921 L 517.2 217.9921 L 517.2 217.9921 Q 513.75 214.5921 513.75 208.6921 L 513.75 208.6921 L 513.75 208.6921 Q 513.75 204.9421 515.25 202.0421 L 515.25 202.0421 L 515.25 202.0421 Q 516.75 199.1421 519.475 197.5421 L 519.475 197.5421 L 519.475 197.5421 Q 522.2 195.9421 525.65 195.9421 L 525.65 195.9421 L 525.65 195.9421 Q 528.95 195.9421 531.4 197.3921 L 531.4 197.3921 L 531.4 197.3921 Q 533.85 198.8421 535.2 201.4921 L 535.2 201.4921 L 535.2 201.4921 Q 536.55 204.1421 536.55 207.7421 L 536.55 207.7421 L 536.55 207.7421 Q 536.55 209.8921 534.65 209.8921 L 534.65 209.8921 L 519.9 209.8921 L 519.9 209.8921 Q 520.2 213.3421 521.85 214.9671 L 521.85 214.9671 L 521.85 214.9671 Q 523.5 216.5921 526.65 216.5921 L 526.65 216.5921 L 526.65 216.5921 Q 528.25 216.5921 529.475 216.1921 L 529.475 216.1921 L 529.475 216.1921 Q 530.7 215.7921 532.25 215.0921 L 532.25 215.0921 L 532.25 215.0921 Q 533.75 214.2921 534.45 214.2921 L 534.45 214.2921 L 534.45 214.2921 Z  M 525.8 200.3421 L 525.8 200.3421 Q 523.25 200.3421 521.725 201.9421 L 521.725 201.9421 L 521.725 201.9421 Q 520.2 203.5421 519.9 206.5421 L 519.9 206.5421 L 531.2 206.5421 L 531.2 206.5421 Q 531.1 203.4921 529.7 201.9171 L 529.7 201.9171 L 529.7 201.9171 Q 528.3 200.3421 525.8 200.3421 L 525.8 200.3421 L 525.8 200.3421 Z " fill-rule="evenodd" fill="rgb(0,0,0)"/></g></svg>